{"title":"Better.Call.Saul.S01E01.NORDiC.720p.HDTV.x264-PirateHub","uid":11690639,"size":1182665832,"categoryP":"video","categoryS":"hd___tv_shows","magnet":"?xt=urn:btih:bd635e779985c1ec123ec0091d1c3081cc9adda7&amp;dn=Better.Call.Saul.S01E01.NORDiC.720p.HDTV.x264-PirateHub&amp;tr=udp%3A%2F%2Ftracker.openbittorrent.com%3A80&amp;tr=udp%3A%2F%2Fopen.demonii.com%3A1337&amp;tr=udp%3A%2F%2Ftracker.coppersurfer.tk%3A6969&amp;tr=udp%3A%2F%2Fexodus.desync.com%3A6969","seeders":11,"leechers":0,"uploader":null,"files":1,"time":1423514733,"description":"Better.Call.Saul.S01E01.NORDiC.720p.HDTV.x264-PirateHub\n\n\nRetail Swedish, Norwegian, Danish and Finish subtitle included.\n\nMediainfo:\n\nGeneral\nFormat : Matroska\nFormat version : Version 4 / Version 2\nFile size : 1.10 GiB\nDuration : 52mn 59s\nOverall bit rate : 2 975 Kbps\nEncoded date : UTC 2015-02-09 19:34:10\nWriting application : mkvmerge v7.4.0 ('Circles') 64bit built on Dec 12 2014 12:49:36\nWriting library : libebml v1.3.0 + libmatroska v1.4.1\n\nVideo\nID : 1\nFormat : AVC\nFormat/Info : Advanced Video Codec\nFormat profile : &lt;a class=&quot;__cf_email__&quot; href=&quot;/cdn-cgi/l/email-protection&quot; data-cfemail=&quot;5018393738101c647e61&quot;&gt;[email&amp;#160;protected]&lt;/a&gt;&lt;script cf-hash='f9e31' type=&quot;text/javascript&quot;&gt;\n/* &lt;![CDATA[ */!function(){try{var t=&quot;currentScript&quot;in document?document.currentScript:function(){for(var t=document.getElementsByTagName(&quot;script&quot;),e=t.length;e--;)if(t[e].getAttribute(&quot;cf-hash&quot;))return t[e]}();if(t&amp;&amp;t.previousSibling){var e,r,n,i,c=t.previousSibling,a=c.getAttribute(&quot;data-cfemail&quot;);if(a){for(e=&quot;&quot;,r=parseInt(a.substr(0,2),16),n=2;a.length-n;n+=2)i=parseInt(a.substr(n,2),16)^r,e+=String.fromCharCode(i);e=document.createTextNode(e),c.parentNode.replaceChild(e,c)}}}catch(u){}}();/* ]]&gt; */&lt;/script&gt;\nFormat settings, CABAC : Yes\nFormat settings, ReFrames : 5 frames\nCodec ID : VMPEG4/ISO/AVC\nDuration : 52mn 59s\nBit rate : 2 532 Kbps\nWidth : 1 280 pixels\nHeight : 720 pixels\nDisplay aspect ratio : 16:9\nFrame rate : 23.976 fps\nColor space : YUV\nChroma subsampling : 4:2:0\nBit depth : 8 bits\nScan type : Progressive\nBits/(PixelFrame) : 0.115\nStream size : 960 MiB (85)\nWriting library : x264 core 144 r2525 40bb568\nEncoding settings : cabac=1 / ref=5 / deblock=1:0:0 / analyse=0x3:0x113 / me=umh / subme=8 / psy=1 / psyrd=1.00:0.00 / mixedref=1 / merange=16 / chromame=1 / trellis=1 / 8x8dct=1 / cqm=0 / deadzone=21,11 / fastpskip=1 / chromaqpoffset=-2 / threads=18 / lookaheadthreads=3 / slicedthreads=0 / nr=0 / decimate=1 / interlaced=0 / bluraycompat=0 / constrainedintra=0 / bframes=3 / bpyramid=2 / badapt=2 / bbias=0 / direct=3 / weightb=1 / opengop=0 / weightp=2 / keyint=250 / keyintmin=23 / scenecut=40 / intrarefresh=0 / rclookahead=50 / rc=crf / mbtree=1 / crf=18.0 / qcomp=0.60 / qpmin=0 / qpmax=69 / qpstep=4 / ipratio=1.40 / aq=1:1.00\nLanguage : English\nDefault : Yes\nForced : No\n\nAudio\nID : 2\nFormat : AC-3\nFormat/Info : Audio Coding 3\nMode extension : CM (complete main)\nFormat settings, Endianness : Big\nCodec ID : AAC3\nDuration : 52mn 59s\nBit rate mode : Constant\nBit rate : 384 Kbps\nChannel(s) : 6 channels\nChannel positions : Front: L C R, Side: L R, LFE\nSampling rate : 48.0 KHz\nBit depth : 16 bits\nCompression mode : Lossy\nStream size : 146 MiB (13)\nDefault : Yes\nForced : No\n\nText 1\nID : 3\nFormat : UTF-8\nCodec ID : STEXT/UTF8\nCodec ID/Info : UTF-8 Plain Text\nLanguage : Danish\nDefault : No\nForced : No\n\nText 2\nID : 4\nFormat : UTF-8\nCodec ID : STEXT/UTF8\nCodec ID/Info : UTF-8 Plain Text\nLanguage : Finnish\nDefault : No\nForced : No\n\nText 3\nID : 5\nFormat : UTF-8\nCodec ID : STEXT/UTF8\nCodec ID/Info : UTF-8 Plain Text\nLanguage : Norwegian\nDefault : No\nForced : No\n\nText 4\nID : 6\nFormat : UTF-8\nCodec ID : STEXT/UTF8\nCodec ID/Info : UTF-8 Plain Text\nLanguage : Swedish\nDefault : Yes\nForced : No","torrent":{"xt":"urn:btih:bd635e779985c1ec123ec0091d1c3081cc9adda7","amp;dn":"Better.Call.Saul.S01E01.NORDiC.720p.HDTV.x264-PirateHub","amp;tr":["udp%3A%2F%2Ftracker.openbittorrent.com%3A80","udp%3A%2F%2Fopen.demonii.com%3A1337","udp%3A%2F%2Ftracker.coppersurfer.tk%3A6969","udp%3A%2F%2Fexodus.desync.com%3A6969"],"infoHash":"bd635e779985c1ec123ec0091d1c3081cc9adda7","infoHashBuffer":{"type":"Buffer","data":[189,99,94,119,153,133,193,236,18,62,192,9,29,28,48,129,204,154,221,167]},"announce":[],"urlList":[]}}